<mxfile host="app.diagrams.net" agent="Mozilla/5.0 (Windows NT 10.0; Win64; x64) AppleWebKit/537.36 (KHTML, like Gecko) Chrome/127.0.0.0 Safari/537.36" version="24.7.6">
  <diagram name="Page-1" id="DKGAmTH7IYVnLwG2p-rW">
    <mxGraphModel dx="1050" dy="565" grid="1" gridSize="10" guides="1" tooltips="1" connect="1" arrows="1" fold="1" page="1" pageScale="1" pageWidth="2339" pageHeight="3300" math="0" shadow="0">
      <root>
        <mxCell id="0" />
        <mxCell id="1" parent="0" />
        <mxCell id="i1B-f_vfJnyZmSTUSLFz-1" value="Directeur" style="shape=umlActor;verticalLabelPosition=bottom;verticalAlign=top;html=1;outlineConnect=0;" parent="1" vertex="1">
          <mxGeometry x="40" y="30" width="30" height="60" as="geometry" />
        </mxCell>
        <mxCell id="i1B-f_vfJnyZmSTUSLFz-9" value="course" style="shape=umlLifeline;perimeter=lifelinePerimeter;whiteSpace=wrap;html=1;container=1;dropTarget=0;collapsible=0;recursiveResize=0;outlineConnect=0;portConstraint=eastwest;newEdgeStyle={&quot;edgeStyle&quot;:&quot;elbowEdgeStyle&quot;,&quot;elbow&quot;:&quot;vertical&quot;,&quot;curved&quot;:0,&quot;rounded&quot;:0};" parent="1" vertex="1">
          <mxGeometry x="540" y="40" width="100" height="1200" as="geometry" />
        </mxCell>
        <mxCell id="i1B-f_vfJnyZmSTUSLFz-12" value="note" style="shape=umlLifeline;perimeter=lifelinePerimeter;whiteSpace=wrap;html=1;container=1;dropTarget=0;collapsible=0;recursiveResize=0;outlineConnect=0;portConstraint=eastwest;newEdgeStyle={&quot;edgeStyle&quot;:&quot;elbowEdgeStyle&quot;,&quot;elbow&quot;:&quot;vertical&quot;,&quot;curved&quot;:0,&quot;rounded&quot;:0};" parent="1" vertex="1">
          <mxGeometry x="700" y="40" width="100" height="1120" as="geometry" />
        </mxCell>
        <mxCell id="i1B-f_vfJnyZmSTUSLFz-13" value="" style="html=1;points=[];perimeter=orthogonalPerimeter;fillColor=strokeColor;" parent="1" vertex="1">
          <mxGeometry x="50" y="130" width="5" height="220" as="geometry" />
        </mxCell>
        <mxCell id="i1B-f_vfJnyZmSTUSLFz-15" value="return" style="endArrow=open;startArrow=none;endFill=0;startFill=0;endSize=8;html=1;verticalAlign=bottom;dashed=1;labelBackgroundColor=none;rounded=0;" parent="1" source="OpkuWLpWqErTyJCGgItU-1" edge="1">
          <mxGeometry x="-0.053" width="160" relative="1" as="geometry">
            <mxPoint x="90" y="230" as="sourcePoint" />
            <mxPoint x="60" y="210" as="targetPoint" />
            <mxPoint as="offset" />
            <Array as="points">
              <mxPoint x="230" y="210" />
            </Array>
          </mxGeometry>
        </mxCell>
        <mxCell id="i1B-f_vfJnyZmSTUSLFz-17" value="" style="endArrow=classic;html=1;rounded=0;" parent="1" target="OpkuWLpWqErTyJCGgItU-1" edge="1">
          <mxGeometry width="50" height="50" relative="1" as="geometry">
            <mxPoint x="60" y="240" as="sourcePoint" />
            <mxPoint x="240" y="210" as="targetPoint" />
            <Array as="points">
              <mxPoint x="210" y="240" />
              <mxPoint x="340" y="240" />
            </Array>
          </mxGeometry>
        </mxCell>
        <mxCell id="i1B-f_vfJnyZmSTUSLFz-18" value="Ajouter cours" style="text;html=1;align=center;verticalAlign=middle;resizable=0;points=[];autosize=1;strokeColor=none;fillColor=none;" parent="1" vertex="1">
          <mxGeometry x="145" y="210" width="90" height="30" as="geometry" />
        </mxCell>
        <mxCell id="i1B-f_vfJnyZmSTUSLFz-20" value="" style="endArrow=classic;html=1;rounded=0;" parent="1" target="OpkuWLpWqErTyJCGgItU-1" edge="1">
          <mxGeometry width="50" height="50" relative="1" as="geometry">
            <mxPoint x="50" y="190" as="sourcePoint" />
            <mxPoint x="180" y="140" as="targetPoint" />
            <Array as="points">
              <mxPoint x="240" y="190" />
            </Array>
          </mxGeometry>
        </mxCell>
        <mxCell id="i1B-f_vfJnyZmSTUSLFz-22" value="Afficher le cours" style="endArrow=open;startArrow=none;endFill=0;startFill=0;endSize=8;html=1;verticalAlign=bottom;dashed=1;labelBackgroundColor=none;rounded=0;" parent="1" source="i1B-f_vfJnyZmSTUSLFz-9" edge="1">
          <mxGeometry width="160" relative="1" as="geometry">
            <mxPoint x="592.5" y="250" as="sourcePoint" />
            <mxPoint x="60" y="280" as="targetPoint" />
            <Array as="points">
              <mxPoint x="330" y="280" />
            </Array>
          </mxGeometry>
        </mxCell>
        <mxCell id="i1B-f_vfJnyZmSTUSLFz-27" value="" style="endArrow=classic;html=1;rounded=0;" parent="1" target="OpkuWLpWqErTyJCGgItU-1" edge="1">
          <mxGeometry width="50" height="50" relative="1" as="geometry">
            <mxPoint x="57" y="320" as="sourcePoint" />
            <mxPoint x="420.85000000000014" y="305.80999999999995" as="targetPoint" />
            <Array as="points">
              <mxPoint x="240" y="320" />
            </Array>
          </mxGeometry>
        </mxCell>
        <mxCell id="i1B-f_vfJnyZmSTUSLFz-31" value="avoir le cours avex la nome de student" style="endArrow=open;startArrow=none;endFill=0;startFill=0;endSize=8;html=1;verticalAlign=bottom;dashed=1;labelBackgroundColor=none;rounded=0;" parent="1" source="i1B-f_vfJnyZmSTUSLFz-9" edge="1">
          <mxGeometry x="0.3823" y="-8" width="160" relative="1" as="geometry">
            <mxPoint x="410" y="340" as="sourcePoint" />
            <mxPoint x="60" y="350" as="targetPoint" />
            <mxPoint x="1" as="offset" />
            <Array as="points">
              <mxPoint x="460" y="350" />
              <mxPoint x="330" y="350" />
            </Array>
          </mxGeometry>
        </mxCell>
        <mxCell id="Xz6Ck8s1d1qLKp3yGDno-1" value="" style="endArrow=classic;html=1;rounded=0;" parent="1" target="OpkuWLpWqErTyJCGgItU-1" edge="1">
          <mxGeometry width="50" height="50" relative="1" as="geometry">
            <mxPoint x="150" y="430" as="sourcePoint" />
            <mxPoint x="410" y="400" as="targetPoint" />
            <Array as="points">
              <mxPoint x="280" y="430" />
            </Array>
          </mxGeometry>
        </mxCell>
        <mxCell id="OpkuWLpWqErTyJCGgItU-14" value="consulter les cours" style="edgeLabel;html=1;align=center;verticalAlign=middle;resizable=0;points=[];" parent="Xz6Ck8s1d1qLKp3yGDno-1" vertex="1" connectable="0">
          <mxGeometry x="-0.0044" y="9" relative="1" as="geometry">
            <mxPoint as="offset" />
          </mxGeometry>
        </mxCell>
        <mxCell id="OpkuWLpWqErTyJCGgItU-1" value="system" style="shape=umlLifeline;perimeter=lifelinePerimeter;whiteSpace=wrap;html=1;container=1;dropTarget=0;collapsible=0;recursiveResize=0;outlineConnect=0;portConstraint=eastwest;newEdgeStyle={&quot;edgeStyle&quot;:&quot;elbowEdgeStyle&quot;,&quot;elbow&quot;:&quot;vertical&quot;,&quot;curved&quot;:0,&quot;rounded&quot;:0};" parent="1" vertex="1">
          <mxGeometry x="362.5" y="40" width="100" height="1170" as="geometry" />
        </mxCell>
        <mxCell id="OpkuWLpWqErTyJCGgItU-5" value="consulter les cours" style="text;html=1;align=center;verticalAlign=middle;resizable=0;points=[];autosize=1;strokeColor=none;fillColor=none;" parent="1" vertex="1">
          <mxGeometry x="237.5" y="170" width="120" height="30" as="geometry" />
        </mxCell>
        <mxCell id="OpkuWLpWqErTyJCGgItU-7" value="Data&amp;nbsp;" style="shape=umlLifeline;perimeter=lifelinePerimeter;whiteSpace=wrap;html=1;container=1;dropTarget=0;collapsible=0;recursiveResize=0;outlineConnect=0;portConstraint=eastwest;newEdgeStyle={&quot;edgeStyle&quot;:&quot;elbowEdgeStyle&quot;,&quot;elbow&quot;:&quot;vertical&quot;,&quot;curved&quot;:0,&quot;rounded&quot;:0};" parent="1" vertex="1">
          <mxGeometry x="850" y="40" width="100" height="1120" as="geometry" />
        </mxCell>
        <mxCell id="OpkuWLpWqErTyJCGgItU-8" value="Student" style="shape=umlActor;verticalLabelPosition=bottom;verticalAlign=top;html=1;outlineConnect=0;" parent="1" vertex="1">
          <mxGeometry x="220" y="30" width="30" height="60" as="geometry" />
        </mxCell>
        <mxCell id="OpkuWLpWqErTyJCGgItU-10" value="Teacher" style="shape=umlActor;verticalLabelPosition=bottom;verticalAlign=top;html=1;outlineConnect=0;" parent="1" vertex="1">
          <mxGeometry x="130" y="30" width="30" height="60" as="geometry" />
        </mxCell>
        <mxCell id="OpkuWLpWqErTyJCGgItU-11" value="" style="endArrow=none;dashed=1;html=1;rounded=0;" parent="1" source="OpkuWLpWqErTyJCGgItU-38" edge="1">
          <mxGeometry width="50" height="50" relative="1" as="geometry">
            <mxPoint x="143" y="650" as="sourcePoint" />
            <mxPoint x="140" y="120" as="targetPoint" />
          </mxGeometry>
        </mxCell>
        <mxCell id="OpkuWLpWqErTyJCGgItU-13" value="" style="endArrow=none;dashed=1;html=1;rounded=0;" parent="1" target="OpkuWLpWqErTyJCGgItU-12" edge="1">
          <mxGeometry width="50" height="50" relative="1" as="geometry">
            <mxPoint x="140" y="440" as="sourcePoint" />
            <mxPoint x="140" y="120" as="targetPoint" />
          </mxGeometry>
        </mxCell>
        <mxCell id="OpkuWLpWqErTyJCGgItU-12" value="" style="html=1;points=[];perimeter=orthogonalPerimeter;fillColor=strokeColor;" parent="1" vertex="1">
          <mxGeometry x="140" y="370" width="5" height="130" as="geometry" />
        </mxCell>
        <mxCell id="OpkuWLpWqErTyJCGgItU-21" value="" style="endArrow=classic;html=1;rounded=0;" parent="1" source="OpkuWLpWqErTyJCGgItU-1" target="i1B-f_vfJnyZmSTUSLFz-9" edge="1">
          <mxGeometry width="50" height="50" relative="1" as="geometry">
            <mxPoint x="550" y="570" as="sourcePoint" />
            <mxPoint x="600" y="520" as="targetPoint" />
            <Array as="points">
              <mxPoint x="500" y="440" />
            </Array>
          </mxGeometry>
        </mxCell>
        <mxCell id="OpkuWLpWqErTyJCGgItU-22" value="rechercher le cours" style="edgeLabel;html=1;align=center;verticalAlign=middle;resizable=0;points=[];" parent="OpkuWLpWqErTyJCGgItU-21" vertex="1" connectable="0">
          <mxGeometry x="0.0862" y="-4" relative="1" as="geometry">
            <mxPoint x="-18" y="-14" as="offset" />
          </mxGeometry>
        </mxCell>
        <mxCell id="OpkuWLpWqErTyJCGgItU-24" value="return" style="endArrow=open;startArrow=none;endFill=0;startFill=0;endSize=8;html=1;verticalAlign=bottom;dashed=1;labelBackgroundColor=none;rounded=0;" parent="1" source="i1B-f_vfJnyZmSTUSLFz-9" target="OpkuWLpWqErTyJCGgItU-1" edge="1">
          <mxGeometry width="160" relative="1" as="geometry">
            <mxPoint x="500" y="550" as="sourcePoint" />
            <mxPoint x="660" y="550" as="targetPoint" />
            <Array as="points">
              <mxPoint x="500" y="460" />
            </Array>
          </mxGeometry>
        </mxCell>
        <mxCell id="OpkuWLpWqErTyJCGgItU-25" value="afficher le cours" style="endArrow=open;startArrow=none;endFill=0;startFill=0;endSize=8;html=1;verticalAlign=bottom;dashed=1;labelBackgroundColor=none;rounded=0;" parent="1" source="OpkuWLpWqErTyJCGgItU-1" edge="1">
          <mxGeometry width="160" relative="1" as="geometry">
            <mxPoint x="500" y="550" as="sourcePoint" />
            <mxPoint x="150" y="470" as="targetPoint" />
            <Array as="points">
              <mxPoint x="280" y="470" />
              <mxPoint x="150" y="470" />
              <mxPoint x="140" y="470" />
              <mxPoint x="180" y="470" />
            </Array>
          </mxGeometry>
        </mxCell>
        <mxCell id="OpkuWLpWqErTyJCGgItU-28" value="" style="html=1;verticalAlign=bottom;labelBackgroundColor=none;endArrow=block;endFill=1;rounded=0;entryX=0.98;entryY=0.609;entryDx=0;entryDy=0;entryPerimeter=0;" parent="1" edge="1" target="BrGFGS4DlvZJD8hUbCFJ-58">
          <mxGeometry width="160" relative="1" as="geometry">
            <mxPoint x="140" y="500" as="sourcePoint" />
            <mxPoint x="418" y="500" as="targetPoint" />
            <Array as="points">
              <mxPoint x="210" y="500" />
              <mxPoint x="266" y="500" />
              <mxPoint x="376" y="500" />
            </Array>
          </mxGeometry>
        </mxCell>
        <mxCell id="OpkuWLpWqErTyJCGgItU-29" value="consulter un étudiant" style="text;html=1;align=center;verticalAlign=middle;resizable=0;points=[];autosize=1;strokeColor=none;fillColor=none;" parent="1" vertex="1">
          <mxGeometry x="225" y="478" width="130" height="30" as="geometry" />
        </mxCell>
        <mxCell id="OpkuWLpWqErTyJCGgItU-30" value="return indormations" style="endArrow=open;startArrow=none;endFill=0;startFill=0;endSize=8;html=1;verticalAlign=bottom;dashed=1;labelBackgroundColor=none;rounded=0;" parent="1" edge="1">
          <mxGeometry x="-0.044" y="30" width="160" relative="1" as="geometry">
            <mxPoint x="407" y="520" as="sourcePoint" />
            <mxPoint x="225" y="520" as="targetPoint" />
            <Array as="points">
              <mxPoint x="315" y="520" />
            </Array>
            <mxPoint as="offset" />
          </mxGeometry>
        </mxCell>
        <mxCell id="OpkuWLpWqErTyJCGgItU-31" value="" style="endArrow=none;dashed=1;html=1;rounded=0;" parent="1" source="OpkuWLpWqErTyJCGgItU-35" edge="1">
          <mxGeometry width="50" height="50" relative="1" as="geometry">
            <mxPoint x="230" y="665.5999755859375" as="sourcePoint" />
            <mxPoint x="230" y="120" as="targetPoint" />
          </mxGeometry>
        </mxCell>
        <mxCell id="OpkuWLpWqErTyJCGgItU-32" value="" style="endArrow=classic;html=1;rounded=0;" parent="1" target="OpkuWLpWqErTyJCGgItU-1" edge="1">
          <mxGeometry width="50" height="50" relative="1" as="geometry">
            <mxPoint x="230" y="550" as="sourcePoint" />
            <mxPoint x="402" y="550" as="targetPoint" />
            <Array as="points">
              <mxPoint x="340" y="550" />
            </Array>
          </mxGeometry>
        </mxCell>
        <mxCell id="OpkuWLpWqErTyJCGgItU-33" value="recherche un étudiant" style="edgeLabel;html=1;align=center;verticalAlign=middle;resizable=0;points=[];" parent="OpkuWLpWqErTyJCGgItU-32" vertex="1" connectable="0">
          <mxGeometry x="-0.0066" y="-6" relative="1" as="geometry">
            <mxPoint x="20" y="-36" as="offset" />
          </mxGeometry>
        </mxCell>
        <mxCell id="OpkuWLpWqErTyJCGgItU-36" value="" style="endArrow=none;dashed=1;html=1;rounded=0;" parent="1" source="BrGFGS4DlvZJD8hUbCFJ-70" target="OpkuWLpWqErTyJCGgItU-35" edge="1">
          <mxGeometry width="50" height="50" relative="1" as="geometry">
            <mxPoint x="230" y="1260" as="sourcePoint" />
            <mxPoint x="230" y="120" as="targetPoint" />
            <Array as="points" />
          </mxGeometry>
        </mxCell>
        <mxCell id="OpkuWLpWqErTyJCGgItU-35" value="" style="html=1;points=[];perimeter=orthogonalPerimeter;fillColor=strokeColor;" parent="1" vertex="1">
          <mxGeometry x="230" y="520" width="5" height="30" as="geometry" />
        </mxCell>
        <mxCell id="OpkuWLpWqErTyJCGgItU-37" value="Affiche le information d&#39;éleve" style="html=1;verticalAlign=bottom;labelBackgroundColor=none;endArrow=open;endFill=0;dashed=1;rounded=0;" parent="1" source="OpkuWLpWqErTyJCGgItU-1" edge="1">
          <mxGeometry width="160" relative="1" as="geometry">
            <mxPoint x="530" y="430" as="sourcePoint" />
            <mxPoint x="140" y="580" as="targetPoint" />
          </mxGeometry>
        </mxCell>
        <mxCell id="OpkuWLpWqErTyJCGgItU-39" value="" style="endArrow=none;dashed=1;html=1;rounded=0;" parent="1" source="BrGFGS4DlvZJD8hUbCFJ-59" target="OpkuWLpWqErTyJCGgItU-38" edge="1">
          <mxGeometry width="50" height="50" relative="1" as="geometry">
            <mxPoint x="140" y="1140" as="sourcePoint" />
            <mxPoint x="140" y="120" as="targetPoint" />
          </mxGeometry>
        </mxCell>
        <mxCell id="OpkuWLpWqErTyJCGgItU-38" value="" style="html=1;points=[];perimeter=orthogonalPerimeter;fillColor=strokeColor;" parent="1" vertex="1">
          <mxGeometry x="140" y="570" width="5" height="20" as="geometry" />
        </mxCell>
        <mxCell id="OpkuWLpWqErTyJCGgItU-40" value="" style="endArrow=none;dashed=1;html=1;rounded=0;" parent="1" edge="1">
          <mxGeometry width="50" height="50" relative="1" as="geometry">
            <mxPoint x="50" y="1131.5999755859375" as="sourcePoint" />
            <mxPoint x="50" y="120" as="targetPoint" />
          </mxGeometry>
        </mxCell>
        <mxCell id="OpkuWLpWqErTyJCGgItU-41" value="" style="endArrow=classic;html=1;rounded=0;exitX=0.28;exitY=0.873;exitDx=0;exitDy=0;exitPerimeter=0;" parent="1" source="OpkuWLpWqErTyJCGgItU-42" target="OpkuWLpWqErTyJCGgItU-1" edge="1">
          <mxGeometry width="50" height="50" relative="1" as="geometry">
            <mxPoint x="50" y="660" as="sourcePoint" />
            <mxPoint x="230" y="660" as="targetPoint" />
          </mxGeometry>
        </mxCell>
        <mxCell id="OpkuWLpWqErTyJCGgItU-42" value="ajouter /modifier note&amp;nbsp;" style="text;html=1;align=center;verticalAlign=middle;resizable=0;points=[];autosize=1;strokeColor=none;fillColor=none;" parent="1" vertex="1">
          <mxGeometry x="95" y="625" width="140" height="30" as="geometry" />
        </mxCell>
        <mxCell id="OpkuWLpWqErTyJCGgItU-44" value="" style="endArrow=classic;html=1;rounded=0;" parent="1" source="OpkuWLpWqErTyJCGgItU-48" target="i1B-f_vfJnyZmSTUSLFz-12" edge="1">
          <mxGeometry width="50" height="50" relative="1" as="geometry">
            <mxPoint x="420" y="710" as="sourcePoint" />
            <mxPoint x="740" y="710" as="targetPoint" />
          </mxGeometry>
        </mxCell>
        <mxCell id="OpkuWLpWqErTyJCGgItU-45" value="met à jour&amp;nbsp;" style="text;html=1;align=center;verticalAlign=middle;resizable=0;points=[];autosize=1;strokeColor=none;fillColor=none;" parent="1" vertex="1">
          <mxGeometry x="475" y="655" width="80" height="30" as="geometry" />
        </mxCell>
        <mxCell id="OpkuWLpWqErTyJCGgItU-46" value="" style="html=1;points=[];perimeter=orthogonalPerimeter;fillColor=strokeColor;" parent="1" vertex="1">
          <mxGeometry x="410" y="650" width="5" height="80" as="geometry" />
        </mxCell>
        <mxCell id="OpkuWLpWqErTyJCGgItU-49" value="" style="endArrow=classic;html=1;rounded=0;" parent="1" target="i1B-f_vfJnyZmSTUSLFz-12" edge="1">
          <mxGeometry width="50" height="50" relative="1" as="geometry">
            <mxPoint x="412.5" y="680" as="sourcePoint" />
            <mxPoint x="740" y="680" as="targetPoint" />
          </mxGeometry>
        </mxCell>
        <mxCell id="OpkuWLpWqErTyJCGgItU-48" value="" style="html=1;points=[];perimeter=orthogonalPerimeter;fillColor=strokeColor;" parent="1" vertex="1">
          <mxGeometry x="747.5" y="680" width="5" height="22" as="geometry" />
        </mxCell>
        <mxCell id="OpkuWLpWqErTyJCGgItU-50" value="" style="endArrow=classic;html=1;rounded=0;" parent="1" source="OpkuWLpWqErTyJCGgItU-56" target="OpkuWLpWqErTyJCGgItU-1" edge="1">
          <mxGeometry width="50" height="50" relative="1" as="geometry">
            <mxPoint x="52.5" y="760" as="sourcePoint" />
            <mxPoint x="418" y="780" as="targetPoint" />
            <Array as="points">
              <mxPoint x="174.5" y="770" />
              <mxPoint x="300" y="770" />
            </Array>
          </mxGeometry>
        </mxCell>
        <mxCell id="OpkuWLpWqErTyJCGgItU-51" value="consulter un cours&amp;nbsp;" style="text;html=1;align=center;verticalAlign=middle;resizable=0;points=[];autosize=1;strokeColor=none;fillColor=none;" parent="1" vertex="1">
          <mxGeometry x="90" y="748" width="120" height="30" as="geometry" />
        </mxCell>
        <mxCell id="OpkuWLpWqErTyJCGgItU-52" value="" style="endArrow=classic;html=1;rounded=0;" parent="1" source="OpkuWLpWqErTyJCGgItU-1" target="i1B-f_vfJnyZmSTUSLFz-9" edge="1">
          <mxGeometry width="50" height="50" relative="1" as="geometry">
            <mxPoint x="420" y="760" as="sourcePoint" />
            <mxPoint x="320" y="500" as="targetPoint" />
            <Array as="points">
              <mxPoint x="480" y="800" />
              <mxPoint x="520" y="800" />
            </Array>
          </mxGeometry>
        </mxCell>
        <mxCell id="OpkuWLpWqErTyJCGgItU-53" value="Gérer les cours&amp;nbsp;" style="text;html=1;align=center;verticalAlign=middle;resizable=0;points=[];autosize=1;strokeColor=none;fillColor=none;" parent="1" vertex="1">
          <mxGeometry x="445" y="770" width="110" height="30" as="geometry" />
        </mxCell>
        <mxCell id="OpkuWLpWqErTyJCGgItU-54" value="" style="endArrow=classic;html=1;rounded=0;entryX=0.495;entryY=0.732;entryDx=0;entryDy=0;entryPerimeter=0;" parent="1" edge="1">
          <mxGeometry width="50" height="50" relative="1" as="geometry">
            <mxPoint x="60" y="860" as="sourcePoint" />
            <mxPoint x="902.5" y="859.8400000000001" as="targetPoint" />
            <Array as="points">
              <mxPoint x="173" y="860" />
              <mxPoint x="473" y="860" />
              <mxPoint x="693" y="860" />
            </Array>
          </mxGeometry>
        </mxCell>
        <mxCell id="OpkuWLpWqErTyJCGgItU-55" value="Gérer les informations éleves /ensignant&amp;nbsp;" style="text;html=1;align=center;verticalAlign=middle;resizable=0;points=[];autosize=1;strokeColor=none;fillColor=none;" parent="1" vertex="1">
          <mxGeometry x="165" y="840" width="240" height="30" as="geometry" />
        </mxCell>
        <mxCell id="OpkuWLpWqErTyJCGgItU-57" value="" style="endArrow=none;dashed=1;html=1;rounded=0;" parent="1" target="OpkuWLpWqErTyJCGgItU-56" edge="1">
          <mxGeometry width="50" height="50" relative="1" as="geometry">
            <mxPoint x="50" y="890" as="sourcePoint" />
            <mxPoint x="50" y="120" as="targetPoint" />
          </mxGeometry>
        </mxCell>
        <mxCell id="OpkuWLpWqErTyJCGgItU-56" value="" style="html=1;points=[];perimeter=orthogonalPerimeter;fillColor=strokeColor;" parent="1" vertex="1">
          <mxGeometry x="45" y="770" width="10" height="260" as="geometry" />
        </mxCell>
        <mxCell id="CrLBbL69Shos_XjduU1m-1" value="" style="endArrow=classic;html=1;rounded=0;" parent="1" source="OpkuWLpWqErTyJCGgItU-1" target="i1B-f_vfJnyZmSTUSLFz-9" edge="1">
          <mxGeometry width="50" height="50" relative="1" as="geometry">
            <mxPoint x="510" y="360" as="sourcePoint" />
            <mxPoint x="560" y="310" as="targetPoint" />
            <Array as="points">
              <mxPoint x="500" y="260" />
            </Array>
          </mxGeometry>
        </mxCell>
        <mxCell id="CrLBbL69Shos_XjduU1m-2" value="add course to list" style="text;html=1;align=center;verticalAlign=middle;resizable=0;points=[];autosize=1;strokeColor=none;fillColor=none;" parent="1" vertex="1">
          <mxGeometry x="445" y="240" width="110" height="30" as="geometry" />
        </mxCell>
        <mxCell id="CrLBbL69Shos_XjduU1m-3" value="consulter le course ajouté" style="text;html=1;align=center;verticalAlign=middle;resizable=0;points=[];autosize=1;strokeColor=none;fillColor=none;" parent="1" vertex="1">
          <mxGeometry x="210" y="290" width="160" height="30" as="geometry" />
        </mxCell>
        <mxCell id="CrLBbL69Shos_XjduU1m-4" value="" style="endArrow=classic;html=1;rounded=0;" parent="1" source="OpkuWLpWqErTyJCGgItU-1" target="i1B-f_vfJnyZmSTUSLFz-9" edge="1">
          <mxGeometry width="50" height="50" relative="1" as="geometry">
            <mxPoint x="510" y="360" as="sourcePoint" />
            <mxPoint x="560" y="310" as="targetPoint" />
            <Array as="points">
              <mxPoint x="490" y="340" />
            </Array>
          </mxGeometry>
        </mxCell>
        <mxCell id="CrLBbL69Shos_XjduU1m-5" value="assigne le cours to a teacher" style="text;html=1;align=center;verticalAlign=middle;resizable=0;points=[];autosize=1;strokeColor=none;fillColor=none;" parent="1" vertex="1">
          <mxGeometry x="407.5" y="320" width="180" height="30" as="geometry" />
        </mxCell>
        <mxCell id="CrLBbL69Shos_XjduU1m-7" value="" style="html=1;points=[];perimeter=orthogonalPerimeter;fillColor=strokeColor;" parent="1" vertex="1">
          <mxGeometry x="587.5" y="440" width="5" height="20" as="geometry" />
        </mxCell>
        <mxCell id="BrGFGS4DlvZJD8hUbCFJ-1" value="return" style="endArrow=open;startArrow=none;endFill=0;startFill=0;endSize=8;html=1;verticalAlign=bottom;dashed=1;labelBackgroundColor=none;rounded=0;" parent="1" source="i1B-f_vfJnyZmSTUSLFz-12" target="OpkuWLpWqErTyJCGgItU-1" edge="1">
          <mxGeometry width="160" relative="1" as="geometry">
            <mxPoint x="460" y="690" as="sourcePoint" />
            <mxPoint x="620" y="690" as="targetPoint" />
            <Array as="points">
              <mxPoint x="680" y="700" />
              <mxPoint x="620" y="700" />
            </Array>
          </mxGeometry>
        </mxCell>
        <mxCell id="BrGFGS4DlvZJD8hUbCFJ-6" value="return&amp;nbsp;" style="endArrow=open;startArrow=none;endFill=0;startFill=0;endSize=8;html=1;verticalAlign=bottom;dashed=1;labelBackgroundColor=none;rounded=0;entryX=1.5;entryY=0.423;entryDx=0;entryDy=0;entryPerimeter=0;" parent="1" source="OpkuWLpWqErTyJCGgItU-7" target="OpkuWLpWqErTyJCGgItU-56" edge="1">
          <mxGeometry width="160" relative="1" as="geometry">
            <mxPoint x="760" y="920" as="sourcePoint" />
            <mxPoint x="60" y="860" as="targetPoint" />
            <Array as="points" />
          </mxGeometry>
        </mxCell>
        <mxCell id="BrGFGS4DlvZJD8hUbCFJ-7" value="afficher le note" style="text;html=1;align=center;verticalAlign=middle;resizable=0;points=[];autosize=1;strokeColor=none;fillColor=none;" parent="1" vertex="1">
          <mxGeometry x="300" y="700" width="100" height="30" as="geometry" />
        </mxCell>
        <mxCell id="BrGFGS4DlvZJD8hUbCFJ-8" value="" style="endArrow=classic;html=1;rounded=0;" parent="1" target="OpkuWLpWqErTyJCGgItU-1" edge="1">
          <mxGeometry width="50" height="50" relative="1" as="geometry">
            <mxPoint x="60" y="900" as="sourcePoint" />
            <mxPoint x="560" y="770" as="targetPoint" />
            <Array as="points">
              <mxPoint x="230" y="900" />
            </Array>
          </mxGeometry>
        </mxCell>
        <mxCell id="BrGFGS4DlvZJD8hUbCFJ-9" value="modifier&amp;nbsp;" style="text;html=1;align=center;verticalAlign=middle;resizable=0;points=[];autosize=1;strokeColor=none;fillColor=none;" parent="1" vertex="1">
          <mxGeometry x="235" y="878" width="70" height="30" as="geometry" />
        </mxCell>
        <mxCell id="BrGFGS4DlvZJD8hUbCFJ-14" value="" style="endArrow=classic;html=1;rounded=0;" parent="1" source="OpkuWLpWqErTyJCGgItU-1" target="OpkuWLpWqErTyJCGgItU-7" edge="1">
          <mxGeometry width="50" height="50" relative="1" as="geometry">
            <mxPoint x="510" y="820" as="sourcePoint" />
            <mxPoint x="560" y="770" as="targetPoint" />
            <Array as="points">
              <mxPoint x="510" y="910" />
              <mxPoint x="700" y="910" />
            </Array>
          </mxGeometry>
        </mxCell>
        <mxCell id="BrGFGS4DlvZJD8hUbCFJ-15" value="return" style="endArrow=open;startArrow=none;endFill=0;startFill=0;endSize=8;html=1;verticalAlign=bottom;dashed=1;labelBackgroundColor=none;rounded=0;" parent="1" source="OpkuWLpWqErTyJCGgItU-7" target="OpkuWLpWqErTyJCGgItU-1" edge="1">
          <mxGeometry x="-0.0174" y="10" width="160" relative="1" as="geometry">
            <mxPoint x="898" y="950" as="sourcePoint" />
            <mxPoint x="470" y="950" as="targetPoint" />
            <Array as="points">
              <mxPoint x="660" y="930" />
              <mxPoint x="480" y="930" />
            </Array>
            <mxPoint x="1" as="offset" />
          </mxGeometry>
        </mxCell>
        <mxCell id="BrGFGS4DlvZJD8hUbCFJ-18" value="afficher les results" style="text;html=1;align=center;verticalAlign=middle;resizable=0;points=[];autosize=1;strokeColor=none;fillColor=none;" parent="1" vertex="1">
          <mxGeometry x="250" y="930" width="120" height="30" as="geometry" />
        </mxCell>
        <mxCell id="BrGFGS4DlvZJD8hUbCFJ-20" value="" style="endArrow=classic;html=1;rounded=0;" parent="1" target="OpkuWLpWqErTyJCGgItU-1" edge="1">
          <mxGeometry width="50" height="50" relative="1" as="geometry">
            <mxPoint x="60" y="130" as="sourcePoint" />
            <mxPoint x="560" y="70" as="targetPoint" />
            <Array as="points">
              <mxPoint x="240" y="130" />
            </Array>
          </mxGeometry>
        </mxCell>
        <mxCell id="BrGFGS4DlvZJD8hUbCFJ-21" value="Entrer le nom et prénon" style="edgeLabel;html=1;align=center;verticalAlign=middle;resizable=0;points=[];" parent="BrGFGS4DlvZJD8hUbCFJ-20" vertex="1" connectable="0">
          <mxGeometry x="0.317" y="-1" relative="1" as="geometry">
            <mxPoint x="8" y="-11" as="offset" />
          </mxGeometry>
        </mxCell>
        <mxCell id="BrGFGS4DlvZJD8hUbCFJ-22" value="" style="endArrow=classic;html=1;rounded=0;" parent="1" edge="1">
          <mxGeometry width="50" height="50" relative="1" as="geometry">
            <mxPoint x="410" y="140" as="sourcePoint" />
            <mxPoint x="897.5" y="140" as="targetPoint" />
            <Array as="points">
              <mxPoint x="448" y="140" />
            </Array>
          </mxGeometry>
        </mxCell>
        <mxCell id="BrGFGS4DlvZJD8hUbCFJ-24" value="cherche le nom" style="edgeLabel;html=1;align=center;verticalAlign=middle;resizable=0;points=[];" parent="BrGFGS4DlvZJD8hUbCFJ-22" vertex="1" connectable="0">
          <mxGeometry x="0.1397" y="3" relative="1" as="geometry">
            <mxPoint y="-7" as="offset" />
          </mxGeometry>
        </mxCell>
        <mxCell id="BrGFGS4DlvZJD8hUbCFJ-25" value="" style="endArrow=open;startArrow=none;endFill=0;startFill=0;endSize=8;html=1;verticalAlign=bottom;dashed=1;labelBackgroundColor=none;rounded=0;" parent="1" source="OpkuWLpWqErTyJCGgItU-7" target="OpkuWLpWqErTyJCGgItU-1" edge="1">
          <mxGeometry width="160" relative="1" as="geometry">
            <mxPoint x="900" y="160" as="sourcePoint" />
            <mxPoint x="990" y="260" as="targetPoint" />
            <Array as="points">
              <mxPoint x="670" y="150" />
            </Array>
          </mxGeometry>
        </mxCell>
        <mxCell id="BrGFGS4DlvZJD8hUbCFJ-33" value="Afficher le menu pour cet personne" style="text;html=1;align=center;verticalAlign=middle;resizable=0;points=[];autosize=1;strokeColor=none;fillColor=none;" parent="1" vertex="1">
          <mxGeometry x="180" y="138" width="210" height="30" as="geometry" />
        </mxCell>
        <mxCell id="BrGFGS4DlvZJD8hUbCFJ-34" value="" style="endArrow=classic;html=1;rounded=0;exitX=0.72;exitY=0.035;exitDx=0;exitDy=0;exitPerimeter=0;" parent="1" source="OpkuWLpWqErTyJCGgItU-12" target="OpkuWLpWqErTyJCGgItU-1" edge="1">
          <mxGeometry width="50" height="50" relative="1" as="geometry">
            <mxPoint x="510" y="360" as="sourcePoint" />
            <mxPoint x="560" y="310" as="targetPoint" />
          </mxGeometry>
        </mxCell>
        <mxCell id="BrGFGS4DlvZJD8hUbCFJ-35" value="Entrer le nom et prénon" style="edgeLabel;html=1;align=center;verticalAlign=middle;resizable=0;points=[];" parent="BrGFGS4DlvZJD8hUbCFJ-34" vertex="1" connectable="0">
          <mxGeometry y="4" relative="1" as="geometry">
            <mxPoint as="offset" />
          </mxGeometry>
        </mxCell>
        <mxCell id="BrGFGS4DlvZJD8hUbCFJ-36" value="" style="endArrow=classic;html=1;rounded=0;" parent="1" target="OpkuWLpWqErTyJCGgItU-7" edge="1">
          <mxGeometry width="50" height="50" relative="1" as="geometry">
            <mxPoint x="410" y="380" as="sourcePoint" />
            <mxPoint x="839.5" y="380" as="targetPoint" />
          </mxGeometry>
        </mxCell>
        <mxCell id="BrGFGS4DlvZJD8hUbCFJ-37" value="cherche le nom" style="edgeLabel;html=1;align=center;verticalAlign=middle;resizable=0;points=[];" parent="BrGFGS4DlvZJD8hUbCFJ-36" vertex="1" connectable="0">
          <mxGeometry x="0.1187" y="4" relative="1" as="geometry">
            <mxPoint as="offset" />
          </mxGeometry>
        </mxCell>
        <mxCell id="BrGFGS4DlvZJD8hUbCFJ-38" value="retun le nom" style="endArrow=open;startArrow=none;endFill=0;startFill=0;endSize=8;html=1;verticalAlign=bottom;dashed=1;labelBackgroundColor=none;rounded=0;" parent="1" source="OpkuWLpWqErTyJCGgItU-7" target="OpkuWLpWqErTyJCGgItU-1" edge="1">
          <mxGeometry width="160" relative="1" as="geometry">
            <mxPoint x="840" y="400" as="sourcePoint" />
            <mxPoint x="480" y="400" as="targetPoint" />
            <Array as="points">
              <mxPoint x="660" y="400" />
            </Array>
          </mxGeometry>
        </mxCell>
        <mxCell id="BrGFGS4DlvZJD8hUbCFJ-41" value="" style="endArrow=classic;html=1;rounded=0;" parent="1" target="OpkuWLpWqErTyJCGgItU-1" edge="1">
          <mxGeometry width="50" height="50" relative="1" as="geometry">
            <mxPoint x="230" y="1060" as="sourcePoint" />
            <mxPoint x="560" y="1140" as="targetPoint" />
          </mxGeometry>
        </mxCell>
        <mxCell id="BrGFGS4DlvZJD8hUbCFJ-42" value="Entrer le nom et prénon" style="edgeLabel;html=1;align=center;verticalAlign=middle;resizable=0;points=[];" parent="BrGFGS4DlvZJD8hUbCFJ-41" vertex="1" connectable="0">
          <mxGeometry x="0.0907" y="4" relative="1" as="geometry">
            <mxPoint as="offset" />
          </mxGeometry>
        </mxCell>
        <mxCell id="BrGFGS4DlvZJD8hUbCFJ-43" value="" style="endArrow=classic;html=1;rounded=0;" parent="1" source="BrGFGS4DlvZJD8hUbCFJ-72" target="OpkuWLpWqErTyJCGgItU-7" edge="1">
          <mxGeometry width="50" height="50" relative="1" as="geometry">
            <mxPoint x="510" y="1190" as="sourcePoint" />
            <mxPoint x="830" y="1120" as="targetPoint" />
            <Array as="points">
              <mxPoint x="620" y="1080" />
            </Array>
          </mxGeometry>
        </mxCell>
        <mxCell id="BrGFGS4DlvZJD8hUbCFJ-44" value="cherche student" style="edgeLabel;html=1;align=center;verticalAlign=middle;resizable=0;points=[];" parent="BrGFGS4DlvZJD8hUbCFJ-43" vertex="1" connectable="0">
          <mxGeometry x="0.0576" y="4" relative="1" as="geometry">
            <mxPoint as="offset" />
          </mxGeometry>
        </mxCell>
        <mxCell id="BrGFGS4DlvZJD8hUbCFJ-45" value="return&amp;nbsp;" style="endArrow=open;startArrow=none;endFill=0;startFill=0;endSize=8;html=1;verticalAlign=bottom;dashed=1;labelBackgroundColor=none;rounded=0;" parent="1" source="OpkuWLpWqErTyJCGgItU-7" target="OpkuWLpWqErTyJCGgItU-1" edge="1">
          <mxGeometry width="160" relative="1" as="geometry">
            <mxPoint x="460" y="1160" as="sourcePoint" />
            <mxPoint x="620" y="1160" as="targetPoint" />
            <Array as="points">
              <mxPoint x="770" y="1100" />
            </Array>
          </mxGeometry>
        </mxCell>
        <mxCell id="BrGFGS4DlvZJD8hUbCFJ-47" value="afiicher le menu" style="text;html=1;align=center;verticalAlign=middle;resizable=0;points=[];autosize=1;strokeColor=none;fillColor=none;" parent="1" vertex="1">
          <mxGeometry x="260" y="1090" width="110" height="30" as="geometry" />
        </mxCell>
        <mxCell id="BrGFGS4DlvZJD8hUbCFJ-48" value="" style="endArrow=classic;html=1;rounded=0;" parent="1" target="OpkuWLpWqErTyJCGgItU-1" edge="1">
          <mxGeometry width="50" height="50" relative="1" as="geometry">
            <mxPoint x="230" y="1140" as="sourcePoint" />
            <mxPoint x="560" y="940" as="targetPoint" />
          </mxGeometry>
        </mxCell>
        <mxCell id="BrGFGS4DlvZJD8hUbCFJ-49" value="consulter le cours" style="text;html=1;align=center;verticalAlign=middle;resizable=0;points=[];autosize=1;strokeColor=none;fillColor=none;" parent="1" vertex="1">
          <mxGeometry x="280" y="1118" width="120" height="30" as="geometry" />
        </mxCell>
        <mxCell id="BrGFGS4DlvZJD8hUbCFJ-50" value="" style="endArrow=classic;html=1;rounded=0;" parent="1" source="OpkuWLpWqErTyJCGgItU-1" target="i1B-f_vfJnyZmSTUSLFz-9" edge="1">
          <mxGeometry width="50" height="50" relative="1" as="geometry">
            <mxPoint x="440" y="1180" as="sourcePoint" />
            <mxPoint x="560" y="940" as="targetPoint" />
            <Array as="points">
              <mxPoint x="520" y="1160" />
            </Array>
          </mxGeometry>
        </mxCell>
        <mxCell id="BrGFGS4DlvZJD8hUbCFJ-51" value="cherche le cours" style="text;html=1;align=center;verticalAlign=middle;resizable=0;points=[];autosize=1;strokeColor=none;fillColor=none;" parent="1" vertex="1">
          <mxGeometry x="435" y="1138" width="110" height="30" as="geometry" />
        </mxCell>
        <mxCell id="BrGFGS4DlvZJD8hUbCFJ-52" value="afficher le cours" style="endArrow=open;startArrow=none;endFill=0;startFill=0;endSize=8;html=1;verticalAlign=bottom;dashed=1;labelBackgroundColor=none;rounded=0;" parent="1" source="i1B-f_vfJnyZmSTUSLFz-9" edge="1">
          <mxGeometry width="160" relative="1" as="geometry">
            <mxPoint x="460" y="1160" as="sourcePoint" />
            <mxPoint x="230" y="1180" as="targetPoint" />
          </mxGeometry>
        </mxCell>
        <mxCell id="BrGFGS4DlvZJD8hUbCFJ-53" value="" style="html=1;points=[];perimeter=orthogonalPerimeter;fillColor=strokeColor;" parent="1" vertex="1">
          <mxGeometry x="897.5" y="138" width="5" height="12" as="geometry" />
        </mxCell>
        <mxCell id="BrGFGS4DlvZJD8hUbCFJ-54" value="" style="html=1;points=[];perimeter=orthogonalPerimeter;fillColor=strokeColor;" parent="1" vertex="1">
          <mxGeometry x="410" y="130" width="5" height="130" as="geometry" />
        </mxCell>
        <mxCell id="BrGFGS4DlvZJD8hUbCFJ-55" value="" style="html=1;points=[];perimeter=orthogonalPerimeter;fillColor=strokeColor;" parent="1" vertex="1">
          <mxGeometry x="587.5" y="260" width="5" height="20" as="geometry" />
        </mxCell>
        <mxCell id="BrGFGS4DlvZJD8hUbCFJ-56" value="" style="html=1;points=[];perimeter=orthogonalPerimeter;fillColor=strokeColor;" parent="1" vertex="1">
          <mxGeometry x="407.5" y="320" width="5" height="20" as="geometry" />
        </mxCell>
        <mxCell id="BrGFGS4DlvZJD8hUbCFJ-57" value="" style="html=1;points=[];perimeter=orthogonalPerimeter;fillColor=strokeColor;" parent="1" vertex="1">
          <mxGeometry x="587.5" y="340" width="5" height="10" as="geometry" />
        </mxCell>
        <mxCell id="BrGFGS4DlvZJD8hUbCFJ-58" value="" style="html=1;points=[];perimeter=orthogonalPerimeter;fillColor=strokeColor;" parent="1" vertex="1">
          <mxGeometry x="407.5" y="370" width="5" height="210" as="geometry" />
        </mxCell>
        <mxCell id="BrGFGS4DlvZJD8hUbCFJ-60" value="" style="endArrow=none;dashed=1;html=1;rounded=0;" parent="1" target="BrGFGS4DlvZJD8hUbCFJ-59" edge="1">
          <mxGeometry width="50" height="50" relative="1" as="geometry">
            <mxPoint x="140" y="1140" as="sourcePoint" />
            <mxPoint x="140" y="590" as="targetPoint" />
          </mxGeometry>
        </mxCell>
        <mxCell id="BrGFGS4DlvZJD8hUbCFJ-59" value="" style="html=1;points=[];perimeter=orthogonalPerimeter;fillColor=strokeColor;" parent="1" vertex="1">
          <mxGeometry x="140" y="651" width="5" height="80" as="geometry" />
        </mxCell>
        <mxCell id="BrGFGS4DlvZJD8hUbCFJ-61" value="return" style="endArrow=open;startArrow=none;endFill=0;startFill=0;endSize=8;html=1;verticalAlign=bottom;dashed=1;labelBackgroundColor=none;rounded=0;" parent="1" source="i1B-f_vfJnyZmSTUSLFz-9" edge="1">
          <mxGeometry width="160" relative="1" as="geometry">
            <mxPoint x="690" y="810" as="sourcePoint" />
            <mxPoint x="410" y="814" as="targetPoint" />
          </mxGeometry>
        </mxCell>
        <mxCell id="BrGFGS4DlvZJD8hUbCFJ-66" value="" style="html=1;points=[];perimeter=orthogonalPerimeter;fillColor=strokeColor;" parent="1" vertex="1">
          <mxGeometry x="410" y="770" width="5" height="50" as="geometry" />
        </mxCell>
        <mxCell id="BrGFGS4DlvZJD8hUbCFJ-67" value="" style="html=1;points=[];perimeter=orthogonalPerimeter;fillColor=strokeColor;" parent="1" vertex="1">
          <mxGeometry x="410" y="900" width="5" height="70" as="geometry" />
        </mxCell>
        <mxCell id="BrGFGS4DlvZJD8hUbCFJ-68" value="aller cherche cours" style="text;html=1;align=center;verticalAlign=middle;resizable=0;points=[];autosize=1;strokeColor=none;fillColor=none;" parent="1" vertex="1">
          <mxGeometry x="600" y="888" width="120" height="30" as="geometry" />
        </mxCell>
        <mxCell id="BrGFGS4DlvZJD8hUbCFJ-71" value="" style="endArrow=none;dashed=1;html=1;rounded=0;" parent="1" target="BrGFGS4DlvZJD8hUbCFJ-70" edge="1">
          <mxGeometry width="50" height="50" relative="1" as="geometry">
            <mxPoint x="230" y="1260" as="sourcePoint" />
            <mxPoint x="233" y="550" as="targetPoint" />
            <Array as="points">
              <mxPoint x="230" y="950" />
              <mxPoint x="233" y="650" />
            </Array>
          </mxGeometry>
        </mxCell>
        <mxCell id="BrGFGS4DlvZJD8hUbCFJ-70" value="" style="html=1;points=[];perimeter=orthogonalPerimeter;fillColor=strokeColor;" parent="1" vertex="1">
          <mxGeometry x="227.5" y="1058" width="5" height="122" as="geometry" />
        </mxCell>
        <mxCell id="BrGFGS4DlvZJD8hUbCFJ-73" value="" style="endArrow=classic;html=1;rounded=0;" parent="1" source="OpkuWLpWqErTyJCGgItU-1" target="BrGFGS4DlvZJD8hUbCFJ-72" edge="1">
          <mxGeometry width="50" height="50" relative="1" as="geometry">
            <mxPoint x="412" y="1080" as="sourcePoint" />
            <mxPoint x="900" y="1080" as="targetPoint" />
            <Array as="points" />
          </mxGeometry>
        </mxCell>
        <mxCell id="BrGFGS4DlvZJD8hUbCFJ-72" value="" style="html=1;points=[];perimeter=orthogonalPerimeter;fillColor=strokeColor;" parent="1" vertex="1">
          <mxGeometry x="410" y="1050" width="5" height="110" as="geometry" />
        </mxCell>
        <mxCell id="BrGFGS4DlvZJD8hUbCFJ-75" value="" style="html=1;points=[];perimeter=orthogonalPerimeter;fillColor=strokeColor;" parent="1" vertex="1">
          <mxGeometry x="897.5" y="860" width="5" height="20" as="geometry" />
        </mxCell>
        <mxCell id="BrGFGS4DlvZJD8hUbCFJ-76" value="" style="html=1;points=[];perimeter=orthogonalPerimeter;fillColor=strokeColor;" parent="1" vertex="1">
          <mxGeometry x="897.5" y="908" width="5" height="22" as="geometry" />
        </mxCell>
        <mxCell id="BrGFGS4DlvZJD8hUbCFJ-77" value="" style="html=1;points=[];perimeter=orthogonalPerimeter;fillColor=strokeColor;" parent="1" vertex="1">
          <mxGeometry x="897.5" y="380" width="5" height="20" as="geometry" />
        </mxCell>
        <mxCell id="BrGFGS4DlvZJD8hUbCFJ-79" value="" style="html=1;points=[];perimeter=orthogonalPerimeter;fillColor=strokeColor;" parent="1" vertex="1">
          <mxGeometry x="897.5" y="1080" width="5" height="20" as="geometry" />
        </mxCell>
        <mxCell id="BrGFGS4DlvZJD8hUbCFJ-80" value="" style="html=1;points=[];perimeter=orthogonalPerimeter;fillColor=strokeColor;" parent="1" vertex="1">
          <mxGeometry x="587.5" y="1160" width="5" height="20" as="geometry" />
        </mxCell>
        <mxCell id="UsJDr6PdqTKbxiblt17k-1" value="" style="endArrow=open;startArrow=none;endFill=0;startFill=0;endSize=8;html=1;verticalAlign=bottom;dashed=1;labelBackgroundColor=none;rounded=0;exitX=-0.48;exitY=0.269;exitDx=0;exitDy=0;exitPerimeter=0;" edge="1" parent="1" source="BrGFGS4DlvZJD8hUbCFJ-54">
          <mxGeometry width="160" relative="1" as="geometry">
            <mxPoint x="450" y="290" as="sourcePoint" />
            <mxPoint x="60" y="165" as="targetPoint" />
          </mxGeometry>
        </mxCell>
        <mxCell id="UsJDr6PdqTKbxiblt17k-3" value="afficher le menu" style="endArrow=open;startArrow=none;endFill=0;startFill=0;endSize=8;html=1;verticalAlign=bottom;dashed=1;labelBackgroundColor=none;rounded=0;entryX=2;entryY=0.308;entryDx=0;entryDy=0;entryPerimeter=0;" edge="1" parent="1" source="OpkuWLpWqErTyJCGgItU-1" target="OpkuWLpWqErTyJCGgItU-12">
          <mxGeometry width="160" relative="1" as="geometry">
            <mxPoint x="480" y="420" as="sourcePoint" />
            <mxPoint x="610" y="390" as="targetPoint" />
          </mxGeometry>
        </mxCell>
        <mxCell id="UsJDr6PdqTKbxiblt17k-4" value="" style="endArrow=open;startArrow=none;endFill=0;startFill=0;endSize=8;html=1;verticalAlign=bottom;dashed=1;labelBackgroundColor=none;rounded=0;" edge="1" parent="1" source="OpkuWLpWqErTyJCGgItU-1">
          <mxGeometry width="160" relative="1" as="geometry">
            <mxPoint x="340" y="750" as="sourcePoint" />
            <mxPoint x="150" y="720" as="targetPoint" />
          </mxGeometry>
        </mxCell>
        <mxCell id="UsJDr6PdqTKbxiblt17k-5" value="" style="endArrow=open;startArrow=none;endFill=0;startFill=0;endSize=8;html=1;verticalAlign=bottom;dashed=1;labelBackgroundColor=none;rounded=0;entryX=0.66;entryY=0.738;entryDx=0;entryDy=0;entryPerimeter=0;" edge="1" parent="1" target="OpkuWLpWqErTyJCGgItU-56">
          <mxGeometry width="160" relative="1" as="geometry">
            <mxPoint x="411" y="960" as="sourcePoint" />
            <mxPoint x="59" y="980" as="targetPoint" />
            <Array as="points">
              <mxPoint x="239" y="960" />
            </Array>
          </mxGeometry>
        </mxCell>
        <mxCell id="UsJDr6PdqTKbxiblt17k-6" value="" style="endArrow=open;startArrow=none;endFill=0;startFill=0;endSize=8;html=1;verticalAlign=bottom;dashed=1;labelBackgroundColor=none;rounded=0;exitX=0;exitY=0.587;exitDx=0;exitDy=0;exitPerimeter=0;entryX=-0.3;entryY=0.484;entryDx=0;entryDy=0;entryPerimeter=0;" edge="1" parent="1" source="BrGFGS4DlvZJD8hUbCFJ-72" target="BrGFGS4DlvZJD8hUbCFJ-70">
          <mxGeometry width="160" relative="1" as="geometry">
            <mxPoint x="450" y="990" as="sourcePoint" />
            <mxPoint x="610" y="990" as="targetPoint" />
          </mxGeometry>
        </mxCell>
      </root>
    </mxGraphModel>
  </diagram>
</mxfile>
